<svg height="183.855424" viewBox="0 0 142 48" width="543.905629" xmlns="http://www.w3.org/2000/svg"><g fill="#004475" fill-rule="evenodd"><path d="m56.81856 43.54723c0-.448-.36006-.70127-.80572-.70127h-1.32204v1.39302h1.32204c.44566 0 .80572-.25328.80572-.69175zm-3.799 4.33294v-6.49397h3.24464c1.45792 0 2.25413.98316 2.25413 2.16103 0 1.16834-.7962 2.1515-2.25413 2.1515h-1.5734v2.18144h-1.67125zm12.14636-.00041v-2.60902h-2.69028v2.60902h-1.67124v-6.49396h1.67124v2.4252h2.69028v-2.4252h1.66988v6.49396m7.8214-3.24206c0-1.06078-.69024-1.87916-1.7582-1.87916-1.06932 0-1.76907.81838-1.76907 1.87915 0 1.05122.69975 1.87913 1.76907 1.87913 1.06796 0 1.7582-.8279 1.7582-1.87914m-5.22704 0c0-1.97584 1.48645-3.35933 3.46884-3.35933 1.98103 0 3.45797 1.3835 3.45797 3.35932 0 1.97718-1.47694 3.3593-3.45797 3.3593-1.9824 0-3.46884-1.38212-3.46884-3.3593m10.75082 3.24209v-5.03286h-1.81663v-1.4611h5.29498v1.4611h-1.80847v5.03286m9.04207-3.24206c0-1.06078-.69023-1.87916-1.75955-1.87916-1.06796 0-1.7677.81838-1.7677 1.87915 0 1.05122.69974 1.87913 1.7677 1.87913 1.06932 0 1.75955-.8279 1.75955-1.87914m-5.2284 0c0-1.97584 1.48782-3.35933 3.46885-3.35933 1.9824 0 3.45932 1.3835 3.45932 3.35932 0 1.97718-1.47693 3.3593-3.45932 3.3593-1.98103 0-3.46884-1.38212-3.46884-3.3593m13.81869.00003c0-2.0058 1.515-3.35933 3.5069-3.35933 1.56388 0 2.409.88783 2.8275 1.7348l-1.43753.68903c-.21468-.51473-.7677-.94366-1.38998-.94366-1.05846 0-1.80712.80885-1.80712 1.87915 0 1.06075.74866 1.87913 1.80712 1.87913.6223 0 1.1753-.42893 1.38998-.94366l1.43753.68086c-.4185.8279-1.26362 1.74297-2.8275 1.74297-1.9919 0-3.5069-1.36306-3.5069-3.3593m13.48649.00001c0-1.06078-.69024-1.87916-1.7582-1.87916-1.06932 0-1.76907.81838-1.76907 1.87915 0 1.05122.69975 1.87913 1.76907 1.87913 1.06796 0 1.7582-.8279 1.7582-1.87914m-5.22704 0c0-1.97584 1.48645-3.35933 3.46884-3.35933 1.9824 0 3.45797 1.3835 3.45797 3.35932 0 1.97718-1.4756 3.3593-3.45798 3.3593-1.9824 0-3.46884-1.38212-3.46884-3.3593m8.49383 2.43487c0-.48612.42665-.90553.92395-.90553.49458 0 .91307.41942.91307.90554 0 .49566-.4185.91507-.91307.91507-.4973 0-.92394-.4194-.92394-.91506m-65.26959-39.97142c-1.40085-.2805-2.34925-.42757-3.3316 2.18553-1.05846 2.82417-1.05574 4.79183.61278 5.32698 1.3071.42077 2.67398-.3023 3.83705-3.21225 1.1196-2.79966.96606-3.88222-1.11823-4.30026m-50.65972 27.45409c2.1998-1.75387 21.19077-33.52373 23.49926-33.52373 2.54218 0 4.95936 1.94586 3.58025 5.60884-2.42397 6.4422-4.2569 13.65923-4.74333 18.82962 3.74602-3.2177 11.64025-13.3161 13.57915-16.74077 1.63184-2.8841 3.799-6.54435 5.53683-8.3377 1.2283-1.26776 6.89555.74484 4.89143 3.15505-3.92266 4.71422-13.80742 21.99558-11.17963 38.0841 1.58427 6.63148 3.12372 4.21173 3.97428 3.85905.85192-.35132.6087 2.8228-1.49732 2.3503-2.10466-.47387-5.25963-1.42843-6.76918-3.6657-3.4308-5.08324-2.81937-14.68324 1.89814-27.10877-7.83444 9.984-10.00976 11.83456-11.21088 12.54128-.87774.51746-7.5192-.27642-1.52314-19.65616-8.69587 12.86808-13.0139 21.5258-15.9216 24.9845-1.72966 2.05618-5.52323.74214-4.11423-.3799"/><path d="m76.74828 33.67367c-1.37232 0-1.78945-1.1915-1.9362-2.38843.3723-1.1234.73644-2.19506 1.09786-3.2245 2.32887-4.9035 6.50017-8.9355 8.36706-8.9355.99188 0 1.09242 1.1234 1.09242 1.87234 0 4.736-4.74196 12.6761-8.62114 12.6761m8.60756-16.56784c-2.58295 0-4.80447 1.58502-6.72028 3.69974 1.76906-4.40783 3.40226-7.95642 4.91588-11.46417.95927-2.22092-4.6917-3.35114-5.2243-1.8737-1.86014 5.16629-4.94716 14.01465-6.80454 20.09329-1.78537 2.8623-5.80313 6.11267-7.44584 6.11267-2.13592 0-2.46745-3.67932-2.86692-6.7772 2.95252-2.47012 6.81132-5.83216 8.8793-7.43625 1.12367-.87013-1.11823-2.55183-2.1237-1.61634-2.33293 2.17055-4.5599 4.31387-7.05995 6.5212-.63318-4.559-.8628-7.25788-4.65095-7.25788-1.93483 0-3.7365.7639-3.7365 1.12068 0 .92732 3.16855-.9355 3.7596 10.14468-4.15907 3.10468-8.21896 5.3011-10.13612 5.3011-1.30574 0-1.8343-.86467-1.12503-2.76833 1.45927-3.9149 3.52862-8.86604 4.47158-11.2068.76904-1.91184-4.56398-2.9903-5.25965-1.16563-1.47694 3.8754-3.11557 8.71353-3.74194 10.81736-1.61418 5.40596-.25545 7.15983 3.4172 7.15983 3.4267 0 7.9282-2.3326 12.58184-5.8417.4117 4.2662 2.1563 5.8417 4.80583 5.8417 2.62914 0 6.30043-2.1297 9.20403-5.37328-.66034 2.53957-.9117 4.36153-.3098 4.62978.5598.25192 1.70658.25464 1.97017.25192.79078-.00817 1.32748-.56647 1.6427-1.5782.03398-.1076.06794-.21244.10055-.31865.42664 1.3154 1.37368 2.36255 3.20525 2.36255 6.55723 0 11.67557-8.34996 11.67557-15.07404 0-1.92817-.6359-4.30434-3.424-4.30434m33.25304 11.5132c-2.03402-.79523-2.90905-2.74247-2.90905-4.6502 0-2.60903 1.61147-4.31525 3.07754-4.31525.8859 0 1.47014.93005 1.47014 2.34758 0 1.9908-.64132 4.48272-1.63862 6.61787m-5.64553 5.05464c-1.03807 0-1.79896-.78162-1.79896-2.2618 0-1.69395.6087-4.081 1.58564-6.2257.01496 2.816 1.82343 4.9675 4.333 5.83354-1.2609 1.59593-2.73784 2.65397-4.11967 2.65397m-10.2815-7.35864c-1.94028-.3908-2.67535-2.14332-2.67535-3.87404 0-2.17874 1.16307-3.28444 2.33294-3.28444.94975 0 1.49732 1.00358 1.49732 2.26315 0 1.2596-.3492 3.0829-1.15492 4.89533m-7.6415 7.35864c-.9416 0-1.5938-.5937-1.5938-2.04256 0-2.37616 1.41853-5.9479 3.2569-8.6577-.2935 3.471 2.12912 5.30793 4.74603 5.6783-1.72694 2.79286-4.11152 5.02197-6.40913 5.02197m45.83676-3.04613c-.8261 1.5115-2.47017 3.2-3.73243 3.2-2.5055 0-4.32348-5.90434-4.7338-7.3559 3.27045-1.80018 7.70127-4.91576 9.28826-6.24478 1.0245-.85787-1.24458-3.2245-2.44026-2.21957-2.2813 1.9159-4.4417 4.40373-9.1293 7.25105 2.4226-6.5348 4.59793-11.18638 6.57488-15.76306.95927-2.2196-4.6917-3.35116-5.22296-1.87372-1.90358 5.28068-5.08844 14.41226-6.9268 20.49498-1.25547.4834-2.62914.84017-3.98652.86877.95655-2.1692 1.71336-4.9743 1.71336-7.37907 0-2.48646-1.5245-3.98297-3.77047-3.98297-3.20797 0-6.59392 2.54637-8.8956 5.81854-.9946 1.10298-2.57073 2.4075-4.708 2.82008.625-1.68306 1.0435-3.8332 1.0435-5.30655 0-2.60357-1.6563-3.8509-3.7202-3.8509-6.47843 0-13.10088 7.78758-13.10088 14.66418 0 2.29855 1.2215 4.74144 4.29222 4.74144 4.59523 0 8.32494-3.82094 10.4663-7.94826 1.462-.26553 2.71475-.8783 3.8221-1.64902-.5788 1.44068-.91306 2.89906-.91306 4.25668 0 4.42825 2.8683 5.3406 4.8167 5.3406 2.871 0 5.72706-2.1338 7.65102-5.1064 1.52857.015 3.12508-.3622 4.5898-.87965-.8071 2.93447-1.17667 5.1023-.51633 5.39643.56115.25055 1.70656.25327 1.9715.25055.79215-.0068 1.32613-.5651 1.64272-1.5755.73235-2.34212 1.44297-4.47727 2.13592-6.45037.00408-.00273.00815-.0041.01223-.0068 1.409 5.1622 2.50414 8.6005 5.75422 8.6005 4.1047 0 6.89826-4.20494 6.89826-6.016 0-.6509-.38587-.9954-.87638-.09532"/></g></svg>